<?xml version="1.0" encoding="UTF-8" standalone="no"?>
<!-- Created with Inkscape (http://www.inkscape.org/) -->

<svg
   width="768"
   height="768"
   viewBox="0 0 203.2 203.2"
   version="1.1"
   id="svg1"
   xml:space="preserve"
   inkscape:version="1.3.2 (091e20e, 2023-11-25, custom)"
   sodipodi:docname="logo_verde_quadrado.svg"
   inkscape:export-filename="leao-preto-e-branco.png"
   inkscape:export-xdpi="96"
   inkscape:export-ydpi="96"
   xmlns:inkscape="http://www.inkscape.org/namespaces/inkscape"
   xmlns:sodipodi="http://sodipodi.sourceforge.net/DTD/sodipodi-0.dtd"
   xmlns:xlink="http://www.w3.org/1999/xlink"
   xmlns="http://www.w3.org/2000/svg"
   xmlns:svg="http://www.w3.org/2000/svg"><sodipodi:namedview
     id="namedview1"
     pagecolor="#ffffff"
     bordercolor="#111111"
     borderopacity="1"
     inkscape:showpageshadow="0"
     inkscape:pageopacity="0"
     inkscape:pagecheckerboard="1"
     inkscape:deskcolor="#d1d1d1"
     inkscape:document-units="mm"
     inkscape:zoom="0.61134503"
     inkscape:cx="317.33308"
     inkscape:cy="409.75225"
     inkscape:window-width="1920"
     inkscape:window-height="986"
     inkscape:window-x="-11"
     inkscape:window-y="-11"
     inkscape:window-maximized="1"
     inkscape:current-layer="layer1" /><defs
     id="defs1"><linearGradient
       id="linearGradient38"
       inkscape:collect="always"><stop
         style="stop-color:#eac91c;stop-opacity:1;"
         offset="0"
         id="stop38" /><stop
         style="stop-color:#eac91c;stop-opacity:0;"
         offset="1"
         id="stop39" /></linearGradient><linearGradient
       id="linearGradient36"
       inkscape:collect="always"><stop
         style="stop-color:#eac91c;stop-opacity:1;"
         offset="0"
         id="stop36" /><stop
         style="stop-color:#eac91c;stop-opacity:0;"
         offset="1"
         id="stop37" /></linearGradient><linearGradient
       id="linearGradient34"
       inkscape:collect="always"><stop
         style="stop-color:#eac91c;stop-opacity:1;"
         offset="0"
         id="stop34" /><stop
         style="stop-color:#eac91c;stop-opacity:0;"
         offset="1"
         id="stop35" /></linearGradient><linearGradient
       id="linearGradient32"
       inkscape:collect="always"><stop
         style="stop-color:#eac91c;stop-opacity:1;"
         offset="0"
         id="stop32" /><stop
         style="stop-color:#eac91c;stop-opacity:0;"
         offset="1"
         id="stop33" /></linearGradient><linearGradient
       id="linearGradient30"
       inkscape:collect="always"><stop
         style="stop-color:#eac91c;stop-opacity:1;"
         offset="0"
         id="stop30" /><stop
         style="stop-color:#eac91c;stop-opacity:0;"
         offset="1"
         id="stop31" /></linearGradient><linearGradient
       id="linearGradient28"
       inkscape:collect="always"><stop
         style="stop-color:#eac91c;stop-opacity:1;"
         offset="0"
         id="stop28" /><stop
         style="stop-color:#eac91c;stop-opacity:0;"
         offset="1"
         id="stop29" /></linearGradient><linearGradient
       id="linearGradient26"
       inkscape:collect="always"><stop
         style="stop-color:#eac91c;stop-opacity:1;"
         offset="0"
         id="stop26" /><stop
         style="stop-color:#eac91c;stop-opacity:0;"
         offset="1"
         id="stop27" /></linearGradient><linearGradient
       id="linearGradient20"
       inkscape:collect="always"><stop
         style="stop-color:#eac91c;stop-opacity:1;"
         offset="0"
         id="stop21" /><stop
         style="stop-color:#eac91c;stop-opacity:0;"
         offset="1"
         id="stop22" /></linearGradient><linearGradient
       id="linearGradient17"
       inkscape:collect="always"><stop
         style="stop-color:#fba01a;stop-opacity:0.94527364;"
         offset="0"
         id="stop17" /><stop
         style="stop-color:#657efc;stop-opacity:1;"
         offset="1"
         id="stop18" /></linearGradient><radialGradient
       inkscape:collect="always"
       xlink:href="#linearGradient17"
       id="radialGradient18"
       cx="181.44853"
       cy="36.045921"
       fx="181.44853"
       fy="36.045921"
       r="184.98898"
       gradientTransform="matrix(1.3059382,-0.0028574,0.00295334,1.3496705,-55.618465,16.924289)"
       gradientUnits="userSpaceOnUse" /><linearGradient
       inkscape:collect="always"
       xlink:href="#linearGradient20"
       id="linearGradient22"
       x1="178.6412"
       y1="-91.6884"
       x2="178.96564"
       y2="-102.23835"
       gradientUnits="userSpaceOnUse" /><linearGradient
       inkscape:collect="always"
       xlink:href="#linearGradient26"
       id="linearGradient27"
       x1="180.84491"
       y1="49.206097"
       x2="180.7359"
       y2="38.088173"
       gradientUnits="userSpaceOnUse" /><linearGradient
       inkscape:collect="always"
       xlink:href="#linearGradient28"
       id="linearGradient29"
       x1="-87.694191"
       y1="152.76596"
       x2="-87.944099"
       y2="141.87633"
       gradientUnits="userSpaceOnUse" /><linearGradient
       inkscape:collect="always"
       xlink:href="#linearGradient30"
       id="linearGradient31"
       x1="65.544868"
       y1="-164.62567"
       x2="65.59581"
       y2="-153.10782"
       gradientUnits="userSpaceOnUse" /><linearGradient
       inkscape:collect="always"
       xlink:href="#linearGradient32"
       id="linearGradient33"
       x1="-65.648735"
       y1="196.88477"
       x2="-65.597801"
       y2="208.64258"
       gradientUnits="userSpaceOnUse" /><linearGradient
       inkscape:collect="always"
       xlink:href="#linearGradient34"
       id="linearGradient35"
       x1="90.64476"
       y1="-187.59909"
       x2="90.935791"
       y2="-197.89954"
       gradientUnits="userSpaceOnUse" /><linearGradient
       inkscape:collect="always"
       xlink:href="#linearGradient36"
       id="linearGradient37"
       x1="-180.7359"
       y1="-80.681847"
       x2="-180.76494"
       y2="-91.399841"
       gradientUnits="userSpaceOnUse" /><linearGradient
       inkscape:collect="always"
       xlink:href="#linearGradient38"
       id="linearGradient39"
       x1="-175.66556"
       y1="57.297832"
       x2="-175.91547"
       y2="46.408203"
       gradientUnits="userSpaceOnUse" /></defs><g
     inkscape:label="Camada 1"
     inkscape:groupmode="layer"
     id="layer1"><rect
       style="display:none;fill:url(#radialGradient18);fill-opacity:1;stroke-width:0.290999"
       id="rect17"
       width="369.97797"
       height="208.88708"
       x="-3.0979016"
       y="-1.7702296" /><path
       style="display:none;fill:#ffffff;fill-opacity:1;stroke-width:0.290999"
       d="m -6.4289138,137.37574 c 40.4824778,17.41127 73.7573468,10.24678 103.8777138,5.75218 57.86621,-10.24679 89.15226,1.0151 89.15226,1.0151 0,0 43.01707,-9.2056 61.39873,-5.72578 17.60637,2.3616 84.14036,13.8375 116.75648,0.31195 0.80245,30.16404 2.03018,74.10169 2.03018,74.10169 L -3.383639,210.8007 c 0,0 -3.6008128,-46.51056 -3.0452748,-73.42496 z"
       id="path2"
       sodipodi:nodetypes="cccccccc" /><path
       style="display:none;fill:#000000;fill-opacity:1;stroke-width:0.264583"
       d="m 98.082695,143.21077 c 0,0 -66.141877,10.34883 -96.2082608,-2.69285 1.758232,18.29332 7.5774934,23.76106 14.9330888,25.7045 9.803642,3.41227 82.009587,-18.60517 82.009587,-18.60517 z"
       id="path8"
       sodipodi:nodetypes="ccccc" /><path
       style="display:none;fill:#000000;fill-opacity:1;stroke-width:0.264583"
       d="m 101.64124,154.55795 c -52.122265,14.51129 -31.263461,32.80927 -98.5427821,46.91635 49.9821491,-0.0916 145.6588121,0 145.6588121,0 0,0 -41.62385,-17.8524 -47.11603,-46.91635 z"
       id="path9"
       sodipodi:nodetypes="cccc" /><path
       style="display:none;fill:#000000;fill-opacity:1;stroke-width:0.264583"
       d="m 2.6088484,163.77437 c 0.096778,26.92344 0,36.4759 0,36.4759 0,0 29.0727986,-9.33717 40.6375866,-25.45968 -15.608538,6.15471 -33.145418,7.83882 -40.6375866,-11.01622 z"
       id="path10"
       sodipodi:nodetypes="cccc" /><path
       style="display:none;fill:#040604;fill-opacity:1;stroke-width:0.264583"
       d="m 261.75761,140.46362 c 0,0 72.05946,8.78638 98.04583,0.019 -1.75823,18.29332 -7.53291,24.34062 -14.88851,26.28406 -9.80364,3.41227 -82.00959,-18.60517 -82.00959,-18.60517 z"
       id="path8-3"
       sodipodi:nodetypes="ccccc" /><path
       style="display:none;fill:#040604;fill-opacity:1;stroke-width:0.264583"
       d="m 262.38276,154.91529 c 52.12227,14.51129 28.40303,32.46702 95.68236,46.5741 -49.98216,-0.0916 -145.65882,0 -145.65882,0 0,0 39.26817,-15.56055 49.97646,-46.5741 z"
       id="path9-9"
       sodipodi:nodetypes="cccc" /><path
       style="display:none;fill:#040604;fill-opacity:1;stroke-width:0.264583"
       d="m 359.11361,164.31863 c -0.0968,26.92344 0,36.4759 0,36.4759 0,0 -29.0728,-9.33717 -40.63759,-25.45968 15.60854,6.15471 33.14542,7.83882 40.63759,-11.01622 z"
       id="path10-7"
       sodipodi:nodetypes="cccc" /><g
       id="g2"
       transform="translate(-0.38659648,-0.19172236)"><g
         id="g16"
         inkscape:label="sol"
         transform="matrix(1.1922924,0,0,1.1922924,-114.1793,-42.595766)"
         style="display:inline"><path
           id="path52"
           style="fill:#ff9652;fill-opacity:1;stroke-width:0.290999"
           d="m 180.32904,36.260836 c -2.57793,3.100041 -3.641,5.645418 -3.82974,7.70909 -2.97737,-0.244508 -5.06828,-1.676181 -8.43307,-4.376477 -0.64043,3.960025 -0.26988,6.684902 0.6072,8.5571 -2.68018,1.218057 -5.19745,1.004293 -9.41597,0.325045 1.43001,3.842321 3.1411,6.042207 4.86637,7.218681 -1.71041,2.526597 -4.00372,3.628948 -8.08168,5.210018 3.15427,2.57688 5.72901,3.614207 7.80521,3.768762 -0.36934,3.213537 -1.95938,5.230868 -5.05395,8.547282 4.19661,1.004198 7.05561,0.735161 9.00358,-0.145211 1.28338,2.60127 1.16853,5.116887 0.66405,9.317261 3.44792,-1.443172 5.52176,-3.065072 6.69984,-4.682402 2.76836,1.577631 4.00896,3.820108 5.85856,7.916313 2.51585,-3.445292 3.38014,-6.164287 3.34037,-8.29045 3.39744,0.151301 5.50385,1.650266 9.06094,4.680334 0.80651,-4.202085 0.42277,-7.034189 -0.5271,-8.940022 2.69756,-1.116571 5.20281,-0.828077 9.37617,-0.02946 -1.43824,-4.242383 -3.27053,-6.534166 -5.1232,-7.672917 1.78273,-2.480215 4.107,-3.516707 8.23154,-4.981091 -3.30472,-2.861847 -5.99366,-3.933405 -8.14214,-4.025594 0.40488,-3.102449 1.98889,-5.10762 5.01468,-8.36228 -4.22553,-1.002935 -7.09425,-0.719787 -9.0413,0.177767 -1.28131,-2.759167 -1.04906,-5.291302 -0.31265,-9.594247 -4.44096,1.603171 -6.70741,3.600804 -7.74009,5.575371 -2.29181,-1.707327 -3.34776,-3.985077 -4.82762,-7.902877 z m 0.38138,12.041125 a 12.562996,12.562996 0 0 1 12.56305,12.563058 12.562996,12.562996 0 0 1 -12.56305,12.563057 12.562996,12.562996 0 0 1 -12.56306,-12.563057 12.562996,12.562996 0 0 1 12.56306,-12.563058 z"
           transform="translate(0.90039266,1.5646775)" /><rect
           style="display:none;fill:url(#linearGradient31);stroke-width:0.290668"
           id="rect1-8"
           width="4.2101636"
           height="11.694899"
           x="63.385273"
           y="-164.71419"
           ry="0"
           transform="rotate(90)" /><rect
           style="display:none;fill:url(#linearGradient29);stroke-width:0.290668"
           id="rect1-70-0"
           width="4.2101636"
           height="11.694899"
           x="-89.722839"
           y="141.39737"
           ry="0"
           transform="matrix(-0.73662673,0.67629953,0.67629953,0.73662673,0,0)" /><rect
           style="display:none;fill:url(#linearGradient39);stroke-width:0.290668"
           id="rect1-70-0-5"
           width="4.2101636"
           height="11.694899"
           x="-177.75313"
           y="45.983345"
           ry="0"
           transform="rotate(-137.44485)" /><rect
           style="display:none;fill:url(#linearGradient22);stroke-width:0.290668"
           id="rect1-70-0-0"
           width="4.2101636"
           height="11.694899"
           x="176.47296"
           y="-102.8775"
           ry="0"
           transform="rotate(42.555148)" /><rect
           style="display:none;fill:url(#linearGradient27);stroke-width:0.290668"
           id="rect1-7"
           width="4.2101636"
           height="11.694899"
           x="178.60533"
           y="37.919662"
           ry="0" /><rect
           style="display:none;fill:url(#linearGradient33);stroke-width:0.290668"
           id="rect1-8-0"
           width="4.2101636"
           height="11.694899"
           x="-67.808334"
           y="196.95622"
           ry="0"
           transform="rotate(-90)" /><rect
           style="display:none;fill:url(#linearGradient35);fill-opacity:1;stroke-width:0.290668"
           id="rect1-70-0-7"
           width="4.2101636"
           height="11.694899"
           x="88.675034"
           y="-199.02176"
           ry="0"
           transform="matrix(0.73662671,-0.67629956,-0.67629956,-0.73662671,0,0)" /><rect
           style="display:none;fill:url(#linearGradient37);fill-opacity:1;stroke-width:0.290668"
           id="rect1-7-2"
           width="4.2101636"
           height="11.694899"
           x="-182.81551"
           y="-92.12825"
           ry="0"
           transform="scale(-1)" /></g><path
         style="fill:#abd904;fill-opacity:1;stroke-width:0.346562"
         d="m 13.940984,133.49507 c -0.62277,-0.94773 -1.952129,-5.01974 -1.952129,-5.01974 0,0 50.173604,-12.74439 98.442785,2.78876 -30.652345,14.13874 -30.955092,14.22262 -30.955092,14.22262 0,0 -26.149202,-16.34251 -65.535564,-11.99164 z"
         id="path3"
         sodipodi:nodetypes="ccccc" /><path
         style="fill:#abd904;fill-opacity:1;stroke-width:0.346562"
         d="m 84.775178,149.39094 c 0,0 39.107172,-26.04488 82.567782,-26.02404 -43.38275,24.09998 -44.49404,36.70302 -50.49719,53.63264 -5.16653,-3.42823 -32.070592,-27.6086 -32.070592,-27.6086 z"
         id="path4"
         sodipodi:nodetypes="cccc" /><path
         id="path5"
         style="fill:#568c03;fill-opacity:1;stroke-width:0.346562"
         d="m 174.07866,123.43441 c -42.13824,20.32714 -45.40111,45.20267 -49.14533,59.14271 12.43045,5.295 11.44531,4.54214 11.44531,4.54214 4.25477,-1.06684 9.85548,-1.80094 15.89565,-3.68263 -23.23465,14.46092 -47.42015,16.43045 -47.42015,16.43045 0,0 -1.75322,0.21376 -4.58342,0.30745 29.89024,4.69414 54.32641,-9.52652 70.45,-27.26824 3.25581,-3.05645 6.37449,-6.8897 9.22167,-11.72319 8.53625,-12.75326 12.8355,-25.60581 11.92097,-33.54419 -0.003,0.0146 -0.006,0.028 -0.0113,0.0426 -0.0847,-1.72725 -0.22397,-2.01659 -0.30683,-1.99936 0.004,-0.0282 0.0113,-0.0536 0.0148,-0.082 -6.35525,-1.00004 -9.40652,-1.37758 -17.48218,-2.1657 z m -73.80794,76.74012 c -14.321086,-2.24906 -29.889623,-8.87302 -46.373337,-21.49692 13.36518,8.4167 32.573747,15.56499 69.641647,11.70778 -31.884695,-19.87022 -61.808096,-65.915 -106.911598,-49.42258 -0.05913,-0.0747 -0.117678,-0.14196 -0.176841,-0.21688 0.03267,0.0836 0.06831,0.16008 0.100981,0.24338 -0.03387,0.0125 -0.06725,0.0226 -0.100981,0.0349 0.106956,0.15088 0.183639,0.26632 0.288356,0.41466 22.329644,56.14273 68.936436,59.21869 83.531773,58.73545 z" /><g
         id="g15"
         transform="matrix(1.1922924,0,0,1.1922924,-117.6693,-40.730212)"
         inkscape:label="planta esquerda"><path
           id="rect2-9-8"
           style="fill:#568c03;fill-opacity:1;stroke-width:0.31473"
           d="m 147.94741,115.70973 c -1.98395,0.006 -3.8724,0.51917 -5.48391,1.36943 -2.34843,1.23908 -4.22122,3.06004 -5.08444,5.54385 -0.88537,-2.4081 -2.72876,-4.18178 -5.03019,-5.39606 -3.43788,-1.81389 -8.13706,-2.09282 -12.33258,0.81184 0.43301,4.61403 3.3254,8.70638 6.86677,10.21281 3.12995,1.33143 6.85837,1.61403 9.88983,-0.58911 v 12.6044 h 1.47485 v -12.60595 c 2.99282,2.04302 6.62289,1.7445 9.68158,0.44339 3.54137,-1.50643 6.43375,-5.59931 6.86676,-10.21333 -2.22886,-1.5431 -4.6002,-2.18799 -6.84867,-2.18127 z" /></g><g
         id="g13"
         transform="matrix(1.1922924,0,0,1.1922924,-115.26609,-40.730212)"
         inkscape:label="planta central"><path
           id="rect2-9-8-7"
           style="fill:#568c03;fill-opacity:1;stroke-width:0.31473"
           d="m 193.06379,120.34459 c -1.98394,0.006 -3.8724,0.51917 -5.4839,1.36943 -2.34826,1.23898 -4.22114,3.05982 -5.08445,5.54333 -0.88543,-2.40787 -2.72942,-4.18186 -5.0307,-5.39605 -3.43788,-1.81388 -8.13655,-2.09282 -12.33206,0.81183 0.43301,4.61403 3.32488,8.7069 6.86625,10.21333 3.13013,1.3315 6.8588,1.61392 9.89035,-0.58963 v 12.60492 h 1.47484 V 132.2958 c 2.99282,2.04302 6.62289,1.74398 9.68158,0.44287 3.54138,-1.50643 6.43325,-5.59931 6.86625,-10.21333 -2.22887,-1.5431 -4.59969,-2.18747 -6.84816,-2.18075 z" /></g><g
         id="g14"
         inkscape:label="planta direita"
         transform="matrix(1.1922924,0,0,1.1922924,-113.10578,-40.730212)"><path
           id="rect2-9-8-9"
           style="fill:#568c03;fill-opacity:1;stroke-width:0.31473"
           d="m 238.38442,115.63325 c -1.98395,0.006 -3.87292,0.51917 -5.48442,1.36943 -2.34824,1.23897 -4.22062,3.05985 -5.08393,5.54333 -0.88543,-2.40786 -2.72943,-4.18134 -5.0307,-5.39554 -3.43789,-1.81389 -8.13655,-2.09283 -12.33207,0.81184 0.43301,4.61401 3.32489,8.70637 6.86625,10.21281 3.13016,1.33151 6.85879,1.61398 9.89035,-0.58963 v 12.60492 h 1.47433 v -12.60595 c 2.99282,2.04302 6.62289,1.7445 9.68158,0.44338 3.54138,-1.50642 6.43376,-5.59931 6.86677,-10.21333 -2.22887,-1.5431 -4.59969,-2.18798 -6.84816,-2.18126 z" /></g></g></g></svg>
